<mxfile host="app.diagrams.net" modified="2022-04-19T06:55:24.180Z" agent="5.0 (Windows NT 10.0; Win64; x64) AppleWebKit/537.36 (KHTML, like Gecko) Chrome/100.0.4896.127 Safari/537.36" etag="R9c5woPHodx6pnhFOAxh" version="17.4.5" type="github">
  <diagram id="y5-ArMUVISZthWghw4e-" name="第 1 页">
    <mxGraphModel dx="1420" dy="762" grid="1" gridSize="10" guides="1" tooltips="1" connect="1" arrows="1" fold="1" page="1" pageScale="1" pageWidth="2336" pageHeight="1654" math="0" shadow="0">
      <root>
        <mxCell id="0" />
        <mxCell id="1" parent="0" />
        <mxCell id="bnOiq0095lczLOuPGoA0-1" value="" style="shape=table;startSize=0;container=1;collapsible=0;childLayout=tableLayout;" parent="1" vertex="1">
          <mxGeometry x="440" y="130" width="90" height="472" as="geometry" />
        </mxCell>
        <mxCell id="bnOiq0095lczLOuPGoA0-2" value="" style="shape=tableRow;horizontal=0;startSize=0;swimlaneHead=0;swimlaneBody=0;top=0;left=0;bottom=0;right=0;collapsible=0;dropTarget=0;fillColor=none;points=[[0,0.5],[1,0.5]];portConstraint=eastwest;" parent="bnOiq0095lczLOuPGoA0-1" vertex="1">
          <mxGeometry width="90" height="29" as="geometry" />
        </mxCell>
        <mxCell id="bnOiq0095lczLOuPGoA0-3" value="" style="shape=partialRectangle;html=1;whiteSpace=wrap;connectable=0;overflow=hidden;fillColor=#b1ddf0;top=0;left=0;bottom=0;right=0;pointerEvents=1;strokeColor=#10739e;sketch=0;" parent="bnOiq0095lczLOuPGoA0-2" vertex="1">
          <mxGeometry width="90" height="29" as="geometry">
            <mxRectangle width="90" height="29" as="alternateBounds" />
          </mxGeometry>
        </mxCell>
        <mxCell id="bnOiq0095lczLOuPGoA0-4" value="" style="shape=tableRow;horizontal=0;startSize=0;swimlaneHead=0;swimlaneBody=0;top=0;left=0;bottom=0;right=0;collapsible=0;dropTarget=0;fillColor=none;points=[[0,0.5],[1,0.5]];portConstraint=eastwest;" parent="bnOiq0095lczLOuPGoA0-1" vertex="1">
          <mxGeometry y="29" width="90" height="34" as="geometry" />
        </mxCell>
        <mxCell id="bnOiq0095lczLOuPGoA0-5" value="" style="shape=partialRectangle;html=1;whiteSpace=wrap;connectable=0;overflow=hidden;fillColor=#f8cecc;top=0;left=0;bottom=0;right=0;pointerEvents=1;sketch=1;strokeColor=#b85450;" parent="bnOiq0095lczLOuPGoA0-4" vertex="1">
          <mxGeometry width="90" height="34" as="geometry">
            <mxRectangle width="90" height="34" as="alternateBounds" />
          </mxGeometry>
        </mxCell>
        <mxCell id="bnOiq0095lczLOuPGoA0-6" value="" style="shape=tableRow;horizontal=0;startSize=0;swimlaneHead=0;swimlaneBody=0;top=0;left=0;bottom=0;right=0;collapsible=0;dropTarget=0;fillColor=none;points=[[0,0.5],[1,0.5]];portConstraint=eastwest;" parent="bnOiq0095lczLOuPGoA0-1" vertex="1">
          <mxGeometry y="63" width="90" height="28" as="geometry" />
        </mxCell>
        <mxCell id="bnOiq0095lczLOuPGoA0-7" value="" style="shape=partialRectangle;html=1;whiteSpace=wrap;connectable=0;overflow=hidden;fillColor=#f8cecc;top=0;left=0;bottom=0;right=0;pointerEvents=1;strokeColor=#b85450;sketch=1;" parent="bnOiq0095lczLOuPGoA0-6" vertex="1">
          <mxGeometry width="90" height="28" as="geometry">
            <mxRectangle width="90" height="28" as="alternateBounds" />
          </mxGeometry>
        </mxCell>
        <mxCell id="bnOiq0095lczLOuPGoA0-8" value="" style="shape=tableRow;horizontal=0;startSize=0;swimlaneHead=0;swimlaneBody=0;top=0;left=0;bottom=0;right=0;collapsible=0;dropTarget=0;fillColor=none;points=[[0,0.5],[1,0.5]];portConstraint=eastwest;" parent="bnOiq0095lczLOuPGoA0-1" vertex="1">
          <mxGeometry y="91" width="90" height="29" as="geometry" />
        </mxCell>
        <mxCell id="bnOiq0095lczLOuPGoA0-9" value="" style="shape=partialRectangle;html=1;whiteSpace=wrap;connectable=0;overflow=hidden;fillColor=#f8cecc;top=0;left=0;bottom=0;right=0;pointerEvents=1;strokeColor=#b85450;sketch=1;" parent="bnOiq0095lczLOuPGoA0-8" vertex="1">
          <mxGeometry width="90" height="29" as="geometry">
            <mxRectangle width="90" height="29" as="alternateBounds" />
          </mxGeometry>
        </mxCell>
        <mxCell id="bnOiq0095lczLOuPGoA0-10" value="" style="shape=tableRow;horizontal=0;startSize=0;swimlaneHead=0;swimlaneBody=0;top=0;left=0;bottom=0;right=0;collapsible=0;dropTarget=0;fillColor=none;points=[[0,0.5],[1,0.5]];portConstraint=eastwest;" parent="bnOiq0095lczLOuPGoA0-1" vertex="1">
          <mxGeometry y="120" width="90" height="29" as="geometry" />
        </mxCell>
        <mxCell id="bnOiq0095lczLOuPGoA0-11" value="" style="shape=partialRectangle;html=1;whiteSpace=wrap;connectable=0;overflow=hidden;fillColor=#f8cecc;top=0;left=0;bottom=0;right=0;pointerEvents=1;strokeColor=#b85450;sketch=1;" parent="bnOiq0095lczLOuPGoA0-10" vertex="1">
          <mxGeometry width="90" height="29" as="geometry">
            <mxRectangle width="90" height="29" as="alternateBounds" />
          </mxGeometry>
        </mxCell>
        <mxCell id="bnOiq0095lczLOuPGoA0-12" value="" style="shape=tableRow;horizontal=0;startSize=0;swimlaneHead=0;swimlaneBody=0;top=0;left=0;bottom=0;right=0;collapsible=0;dropTarget=0;fillColor=none;points=[[0,0.5],[1,0.5]];portConstraint=eastwest;" parent="bnOiq0095lczLOuPGoA0-1" vertex="1">
          <mxGeometry y="149" width="90" height="34" as="geometry" />
        </mxCell>
        <mxCell id="bnOiq0095lczLOuPGoA0-13" value="" style="shape=partialRectangle;html=1;whiteSpace=wrap;connectable=0;overflow=hidden;fillColor=#f8cecc;top=0;left=0;bottom=0;right=0;pointerEvents=1;strokeColor=#b85450;sketch=1;" parent="bnOiq0095lczLOuPGoA0-12" vertex="1">
          <mxGeometry width="90" height="34" as="geometry">
            <mxRectangle width="90" height="34" as="alternateBounds" />
          </mxGeometry>
        </mxCell>
        <mxCell id="bnOiq0095lczLOuPGoA0-14" value="" style="shape=tableRow;horizontal=0;startSize=0;swimlaneHead=0;swimlaneBody=0;top=0;left=0;bottom=0;right=0;collapsible=0;dropTarget=0;fillColor=none;points=[[0,0.5],[1,0.5]];portConstraint=eastwest;" parent="bnOiq0095lczLOuPGoA0-1" vertex="1">
          <mxGeometry y="183" width="90" height="28" as="geometry" />
        </mxCell>
        <mxCell id="bnOiq0095lczLOuPGoA0-15" value="" style="shape=partialRectangle;html=1;whiteSpace=wrap;connectable=0;overflow=hidden;fillColor=#f8cecc;top=0;left=0;bottom=0;right=0;pointerEvents=1;strokeColor=#b85450;sketch=1;" parent="bnOiq0095lczLOuPGoA0-14" vertex="1">
          <mxGeometry width="90" height="28" as="geometry">
            <mxRectangle width="90" height="28" as="alternateBounds" />
          </mxGeometry>
        </mxCell>
        <mxCell id="bnOiq0095lczLOuPGoA0-16" value="" style="shape=tableRow;horizontal=0;startSize=0;swimlaneHead=0;swimlaneBody=0;top=0;left=0;bottom=0;right=0;collapsible=0;dropTarget=0;fillColor=none;points=[[0,0.5],[1,0.5]];portConstraint=eastwest;" parent="bnOiq0095lczLOuPGoA0-1" vertex="1">
          <mxGeometry y="211" width="90" height="29" as="geometry" />
        </mxCell>
        <mxCell id="bnOiq0095lczLOuPGoA0-17" value="" style="shape=partialRectangle;html=1;whiteSpace=wrap;connectable=0;overflow=hidden;fillColor=#f8cecc;top=0;left=0;bottom=0;right=0;pointerEvents=1;strokeColor=#b85450;sketch=1;" parent="bnOiq0095lczLOuPGoA0-16" vertex="1">
          <mxGeometry width="90" height="29" as="geometry">
            <mxRectangle width="90" height="29" as="alternateBounds" />
          </mxGeometry>
        </mxCell>
        <mxCell id="qFu87ZLYfkctGhrCMN4u-13" value="" style="shape=tableRow;horizontal=0;startSize=0;swimlaneHead=0;swimlaneBody=0;top=0;left=0;bottom=0;right=0;collapsible=0;dropTarget=0;fillColor=none;points=[[0,0.5],[1,0.5]];portConstraint=eastwest;" parent="bnOiq0095lczLOuPGoA0-1" vertex="1">
          <mxGeometry y="240" width="90" height="29" as="geometry" />
        </mxCell>
        <mxCell id="qFu87ZLYfkctGhrCMN4u-14" value="" style="shape=partialRectangle;html=1;whiteSpace=wrap;connectable=0;overflow=hidden;fillColor=#ffff88;top=0;left=0;bottom=0;right=0;pointerEvents=1;strokeColor=#36393d;" parent="qFu87ZLYfkctGhrCMN4u-13" vertex="1">
          <mxGeometry width="90" height="29" as="geometry">
            <mxRectangle width="90" height="29" as="alternateBounds" />
          </mxGeometry>
        </mxCell>
        <mxCell id="qFu87ZLYfkctGhrCMN4u-15" value="" style="shape=tableRow;horizontal=0;startSize=0;swimlaneHead=0;swimlaneBody=0;top=0;left=0;bottom=0;right=0;collapsible=0;dropTarget=0;fillColor=none;points=[[0,0.5],[1,0.5]];portConstraint=eastwest;" parent="bnOiq0095lczLOuPGoA0-1" vertex="1">
          <mxGeometry y="269" width="90" height="29" as="geometry" />
        </mxCell>
        <mxCell id="qFu87ZLYfkctGhrCMN4u-16" value="" style="shape=partialRectangle;html=1;whiteSpace=wrap;connectable=0;overflow=hidden;fillColor=#ffff88;top=0;left=0;bottom=0;right=0;pointerEvents=1;strokeColor=#36393d;" parent="qFu87ZLYfkctGhrCMN4u-15" vertex="1">
          <mxGeometry width="90" height="29" as="geometry">
            <mxRectangle width="90" height="29" as="alternateBounds" />
          </mxGeometry>
        </mxCell>
        <mxCell id="qFu87ZLYfkctGhrCMN4u-17" value="" style="shape=tableRow;horizontal=0;startSize=0;swimlaneHead=0;swimlaneBody=0;top=0;left=0;bottom=0;right=0;collapsible=0;dropTarget=0;fillColor=none;points=[[0,0.5],[1,0.5]];portConstraint=eastwest;" parent="bnOiq0095lczLOuPGoA0-1" vertex="1">
          <mxGeometry y="298" width="90" height="29" as="geometry" />
        </mxCell>
        <mxCell id="qFu87ZLYfkctGhrCMN4u-18" value="" style="shape=partialRectangle;html=1;whiteSpace=wrap;connectable=0;overflow=hidden;fillColor=#ffff88;top=0;left=0;bottom=0;right=0;pointerEvents=1;strokeColor=#36393d;" parent="qFu87ZLYfkctGhrCMN4u-17" vertex="1">
          <mxGeometry width="90" height="29" as="geometry">
            <mxRectangle width="90" height="29" as="alternateBounds" />
          </mxGeometry>
        </mxCell>
        <mxCell id="qFu87ZLYfkctGhrCMN4u-19" value="" style="shape=tableRow;horizontal=0;startSize=0;swimlaneHead=0;swimlaneBody=0;top=0;left=0;bottom=0;right=0;collapsible=0;dropTarget=0;fillColor=none;points=[[0,0.5],[1,0.5]];portConstraint=eastwest;" parent="bnOiq0095lczLOuPGoA0-1" vertex="1">
          <mxGeometry y="327" width="90" height="29" as="geometry" />
        </mxCell>
        <mxCell id="qFu87ZLYfkctGhrCMN4u-20" value="" style="shape=partialRectangle;html=1;whiteSpace=wrap;connectable=0;overflow=hidden;fillColor=#ffff88;top=0;left=0;bottom=0;right=0;pointerEvents=1;strokeColor=#36393d;" parent="qFu87ZLYfkctGhrCMN4u-19" vertex="1">
          <mxGeometry width="90" height="29" as="geometry">
            <mxRectangle width="90" height="29" as="alternateBounds" />
          </mxGeometry>
        </mxCell>
        <mxCell id="qFu87ZLYfkctGhrCMN4u-21" value="" style="shape=tableRow;horizontal=0;startSize=0;swimlaneHead=0;swimlaneBody=0;top=0;left=0;bottom=0;right=0;collapsible=0;dropTarget=0;fillColor=none;points=[[0,0.5],[1,0.5]];portConstraint=eastwest;" parent="bnOiq0095lczLOuPGoA0-1" vertex="1">
          <mxGeometry y="356" width="90" height="29" as="geometry" />
        </mxCell>
        <mxCell id="qFu87ZLYfkctGhrCMN4u-22" value="" style="shape=partialRectangle;html=1;whiteSpace=wrap;connectable=0;overflow=hidden;fillColor=#ffff88;top=0;left=0;bottom=0;right=0;pointerEvents=1;strokeColor=#36393d;" parent="qFu87ZLYfkctGhrCMN4u-21" vertex="1">
          <mxGeometry width="90" height="29" as="geometry">
            <mxRectangle width="90" height="29" as="alternateBounds" />
          </mxGeometry>
        </mxCell>
        <mxCell id="qFu87ZLYfkctGhrCMN4u-23" value="" style="shape=tableRow;horizontal=0;startSize=0;swimlaneHead=0;swimlaneBody=0;top=0;left=0;bottom=0;right=0;collapsible=0;dropTarget=0;fillColor=none;points=[[0,0.5],[1,0.5]];portConstraint=eastwest;" parent="bnOiq0095lczLOuPGoA0-1" vertex="1">
          <mxGeometry y="385" width="90" height="29" as="geometry" />
        </mxCell>
        <mxCell id="qFu87ZLYfkctGhrCMN4u-24" value="" style="shape=partialRectangle;html=1;whiteSpace=wrap;connectable=0;overflow=hidden;fillColor=#ffff88;top=0;left=0;bottom=0;right=0;pointerEvents=1;strokeColor=#36393d;" parent="qFu87ZLYfkctGhrCMN4u-23" vertex="1">
          <mxGeometry width="90" height="29" as="geometry">
            <mxRectangle width="90" height="29" as="alternateBounds" />
          </mxGeometry>
        </mxCell>
        <mxCell id="qFu87ZLYfkctGhrCMN4u-25" value="" style="shape=tableRow;horizontal=0;startSize=0;swimlaneHead=0;swimlaneBody=0;top=0;left=0;bottom=0;right=0;collapsible=0;dropTarget=0;fillColor=none;points=[[0,0.5],[1,0.5]];portConstraint=eastwest;" parent="bnOiq0095lczLOuPGoA0-1" vertex="1">
          <mxGeometry y="414" width="90" height="29" as="geometry" />
        </mxCell>
        <mxCell id="qFu87ZLYfkctGhrCMN4u-26" value="" style="shape=partialRectangle;html=1;whiteSpace=wrap;connectable=0;overflow=hidden;fillColor=#ffff88;top=0;left=0;bottom=0;right=0;pointerEvents=1;strokeColor=#36393d;" parent="qFu87ZLYfkctGhrCMN4u-25" vertex="1">
          <mxGeometry width="90" height="29" as="geometry">
            <mxRectangle width="90" height="29" as="alternateBounds" />
          </mxGeometry>
        </mxCell>
        <mxCell id="qFu87ZLYfkctGhrCMN4u-27" value="" style="shape=tableRow;horizontal=0;startSize=0;swimlaneHead=0;swimlaneBody=0;top=0;left=0;bottom=0;right=0;collapsible=0;dropTarget=0;fillColor=none;points=[[0,0.5],[1,0.5]];portConstraint=eastwest;" parent="bnOiq0095lczLOuPGoA0-1" vertex="1">
          <mxGeometry y="443" width="90" height="29" as="geometry" />
        </mxCell>
        <mxCell id="qFu87ZLYfkctGhrCMN4u-28" value="" style="shape=partialRectangle;html=1;whiteSpace=wrap;connectable=0;overflow=hidden;fillColor=#ffff88;top=0;left=0;bottom=0;right=0;pointerEvents=1;strokeColor=#36393d;" parent="qFu87ZLYfkctGhrCMN4u-27" vertex="1">
          <mxGeometry width="90" height="29" as="geometry">
            <mxRectangle width="90" height="29" as="alternateBounds" />
          </mxGeometry>
        </mxCell>
        <mxCell id="bnOiq0095lczLOuPGoA0-18" value="" style="endArrow=classic;html=1;rounded=0;exitX=0.1;exitY=0.5;exitDx=0;exitDy=0;entryX=0;entryY=0.5;entryDx=0;entryDy=0;exitPerimeter=0;" parent="1" source="bnOiq0095lczLOuPGoA0-22" target="bnOiq0095lczLOuPGoA0-19" edge="1">
          <mxGeometry width="50" height="50" relative="1" as="geometry">
            <mxPoint x="550" y="150" as="sourcePoint" />
            <mxPoint x="570" y="153" as="targetPoint" />
          </mxGeometry>
        </mxCell>
        <mxCell id="bnOiq0095lczLOuPGoA0-19" value="char a" style="text;html=1;strokeColor=none;fillColor=none;align=center;verticalAlign=middle;whiteSpace=wrap;rounded=0;" parent="1" vertex="1">
          <mxGeometry x="570" y="135" width="50" height="20" as="geometry" />
        </mxCell>
        <mxCell id="bnOiq0095lczLOuPGoA0-21" value="" style="shape=curlyBracket;whiteSpace=wrap;html=1;rounded=1;flipH=1;sketch=0;" parent="1" vertex="1">
          <mxGeometry x="530" y="370" width="10" height="230" as="geometry" />
        </mxCell>
        <mxCell id="bnOiq0095lczLOuPGoA0-22" value="" style="shape=curlyBracket;whiteSpace=wrap;html=1;rounded=1;flipH=1;sketch=0;" parent="1" vertex="1">
          <mxGeometry x="530" y="130" width="10" height="30" as="geometry" />
        </mxCell>
        <mxCell id="bnOiq0095lczLOuPGoA0-23" value="" style="endArrow=classic;html=1;rounded=0;entryX=0;entryY=0.5;entryDx=0;entryDy=0;exitX=0.1;exitY=0.5;exitDx=0;exitDy=0;exitPerimeter=0;" parent="1" source="bnOiq0095lczLOuPGoA0-21" target="bnOiq0095lczLOuPGoA0-24" edge="1">
          <mxGeometry width="50" height="50" relative="1" as="geometry">
            <mxPoint x="550" y="310" as="sourcePoint" />
            <mxPoint x="585.5" y="318" as="targetPoint" />
          </mxGeometry>
        </mxCell>
        <mxCell id="bnOiq0095lczLOuPGoA0-24" value="double b" style="text;html=1;strokeColor=none;fillColor=none;align=center;verticalAlign=middle;whiteSpace=wrap;rounded=0;" parent="1" vertex="1">
          <mxGeometry x="570" y="475" width="50" height="20" as="geometry" />
        </mxCell>
        <mxCell id="bnOiq0095lczLOuPGoA0-26" value="&lt;span&gt;编译器对齐系数 n = 4&lt;/span&gt;&lt;br&gt;&lt;span&gt;最长数据类型长度 m = 8&lt;/span&gt;&lt;br&gt;&lt;span&gt;对齐单位s = min(m, n) = 4&lt;/span&gt;" style="shape=callout;whiteSpace=wrap;html=1;perimeter=calloutPerimeter;sketch=0;position2=0.88;align=left;" parent="1" vertex="1">
          <mxGeometry x="170" y="166" width="160" height="90" as="geometry" />
        </mxCell>
        <mxCell id="bnOiq0095lczLOuPGoA0-28" value="" style="shape=curlyBracket;whiteSpace=wrap;html=1;rounded=1;sketch=0;" parent="1" vertex="1">
          <mxGeometry x="430" y="130" width="10" height="240" as="geometry" />
        </mxCell>
        <mxCell id="bnOiq0095lczLOuPGoA0-29" value="" style="shape=curlyBracket;whiteSpace=wrap;html=1;rounded=1;sketch=0;" parent="1" vertex="1">
          <mxGeometry x="430" y="370" width="10" height="230" as="geometry" />
        </mxCell>
        <mxCell id="bnOiq0095lczLOuPGoA0-30" value="8 字节" style="text;html=1;strokeColor=none;fillColor=none;align=center;verticalAlign=middle;whiteSpace=wrap;rounded=0;" parent="1" vertex="1">
          <mxGeometry x="350" y="240" width="50" height="20" as="geometry" />
        </mxCell>
        <mxCell id="bnOiq0095lczLOuPGoA0-31" value="" style="endArrow=classic;html=1;rounded=0;exitX=0.1;exitY=0.5;exitDx=0;exitDy=0;exitPerimeter=0;entryX=1;entryY=0.5;entryDx=0;entryDy=0;" parent="1" source="bnOiq0095lczLOuPGoA0-28" target="bnOiq0095lczLOuPGoA0-30" edge="1">
          <mxGeometry width="50" height="50" relative="1" as="geometry">
            <mxPoint x="370" y="210" as="sourcePoint" />
            <mxPoint x="420" y="160" as="targetPoint" />
          </mxGeometry>
        </mxCell>
        <mxCell id="bnOiq0095lczLOuPGoA0-33" value="8 字节" style="text;html=1;strokeColor=none;fillColor=none;align=center;verticalAlign=middle;whiteSpace=wrap;rounded=0;" parent="1" vertex="1">
          <mxGeometry x="350" y="475" width="50" height="20" as="geometry" />
        </mxCell>
        <mxCell id="bnOiq0095lczLOuPGoA0-34" value="" style="endArrow=classic;html=1;rounded=0;exitX=0.1;exitY=0.5;exitDx=0;exitDy=0;exitPerimeter=0;entryX=1;entryY=0.5;entryDx=0;entryDy=0;" parent="1" source="bnOiq0095lczLOuPGoA0-29" target="bnOiq0095lczLOuPGoA0-33" edge="1">
          <mxGeometry width="50" height="50" relative="1" as="geometry">
            <mxPoint x="430" y="309.9999999999999" as="sourcePoint" />
            <mxPoint x="419" y="280" as="targetPoint" />
          </mxGeometry>
        </mxCell>
        <mxCell id="bnOiq0095lczLOuPGoA0-40" value="" style="endArrow=classic;html=1;rounded=0;entryX=0;entryY=0.5;entryDx=0;entryDy=0;exitX=0.1;exitY=0.5;exitDx=0;exitDy=0;exitPerimeter=0;" parent="1" source="bnOiq0095lczLOuPGoA0-42" target="bnOiq0095lczLOuPGoA0-41" edge="1">
          <mxGeometry width="50" height="50" relative="1" as="geometry">
            <mxPoint x="550" y="220" as="sourcePoint" />
            <mxPoint x="585.5" y="228" as="targetPoint" />
          </mxGeometry>
        </mxCell>
        <mxCell id="bnOiq0095lczLOuPGoA0-41" value="对齐填充" style="text;html=1;strokeColor=none;fillColor=none;align=center;verticalAlign=middle;whiteSpace=wrap;rounded=0;" parent="1" vertex="1">
          <mxGeometry x="565" y="255" width="60" height="20" as="geometry" />
        </mxCell>
        <mxCell id="bnOiq0095lczLOuPGoA0-42" value="" style="shape=curlyBracket;whiteSpace=wrap;html=1;rounded=1;flipH=1;sketch=0;" parent="1" vertex="1">
          <mxGeometry x="530" y="160" width="10" height="210" as="geometry" />
        </mxCell>
        <mxCell id="bnOiq0095lczLOuPGoA0-43" value="Data2" style="swimlane;fontStyle=0;childLayout=stackLayout;horizontal=1;startSize=26;fillColor=none;horizontalStack=0;resizeParent=1;resizeParentMax=0;resizeLast=0;collapsible=1;marginBottom=0;sketch=0;" parent="1" vertex="1">
          <mxGeometry x="170" y="256" width="160" height="78" as="geometry" />
        </mxCell>
        <mxCell id="bnOiq0095lczLOuPGoA0-44" value="+ a: char" style="text;strokeColor=none;fillColor=none;align=left;verticalAlign=top;spacingLeft=4;spacingRight=4;overflow=hidden;rotatable=0;points=[[0,0.5],[1,0.5]];portConstraint=eastwest;sketch=0;" parent="bnOiq0095lczLOuPGoA0-43" vertex="1">
          <mxGeometry y="26" width="160" height="26" as="geometry" />
        </mxCell>
        <mxCell id="bnOiq0095lczLOuPGoA0-45" value="+ b: double" style="text;strokeColor=none;fillColor=none;align=left;verticalAlign=top;spacingLeft=4;spacingRight=4;overflow=hidden;rotatable=0;points=[[0,0.5],[1,0.5]];portConstraint=eastwest;sketch=0;" parent="bnOiq0095lczLOuPGoA0-43" vertex="1">
          <mxGeometry y="52" width="160" height="26" as="geometry" />
        </mxCell>
      </root>
    </mxGraphModel>
  </diagram>
</mxfile>
